<svg id="Layer_1" data-name="Layer 1" xmlns="http://www.w3.org/2000/svg"
     viewBox="0 0 512 512">
    <defs>
        <style>.cls-1{fill:#FFA500;}</style>
    </defs>
    <title>voodoo-doll-outline</title>
    <path class="cls-1"
          d="M183,149.84a12.79,12.79,0,0,0,18.1,0l6.95-6.95,6.95,6.95a12.8,12.8,0,0,0,18.1-18.1l-6.95-6.95,6.95-6.95A12.8,12.8,0,0,0,215,99.75L208,106.69l-6.95-6.95a12.8,12.8,0,0,0-18.1,18.1l6.95,6.95L183,131.74A12.79,12.79,0,0,0,183,149.84Z"/>
    <path class="cls-1"
          d="M278.95,149.84a12.79,12.79,0,0,0,18.1,0l6.95-6.95,6.95,6.95a12.8,12.8,0,0,0,18.1-18.1l-6.95-6.95,6.95-6.95a12.8,12.8,0,0,0-18.1-18.1L304,106.69,297,99.75a12.8,12.8,0,1,0-18.1,18.1l6.95,6.95-6.95,6.95A12.79,12.79,0,0,0,278.95,149.84Z"/>
    <path class="cls-1"
          d="M224,192H211.2a12.8,12.8,0,1,0,0,25.6H224a12.8,12.8,0,0,0,25.6,0h12.8a12.8,12.8,0,0,0,25.6,0h12.8a12.8,12.8,0,1,0,0-25.6H288a12.8,12.8,0,1,0-25.6,0H249.6a12.8,12.8,0,1,0-25.6,0Z"/>
    <path class="cls-1"
          d="M460.79,160a38.37,38.37,0,0,0-34.07,56.07l-32.86,35a58.28,58.28,0,0,0-8.64-4.12l-26.47-10a140.27,140.27,0,0,0,38-96.15C396.79,63.16,333.63,0,256,0S115.21,63.16,115.21,140.79A140.27,140.27,0,0,0,153.28,237l-26.42,10a57.6,57.6,0,1,0,40.72,107.75l.33-.12-24.84,54.31L89,378a38.47,38.47,0,1,0-12.71,22.22l56.22,32.14c-10.71,28.17,1.11,60.54,27.56,73.62A57.6,57.6,0,0,0,238,478.33l16.3-35.63a1.88,1.88,0,0,1,3.42,0l15.52,33.92c13.25,29,47.12,42.81,75.5,30.84a57.6,57.6,0,0,0,30-77l-34.69-75.84.44.17a57.6,57.6,0,0,0,72.85-77.58,58.26,58.26,0,0,0-4.8-8.58l32.84-35A38.39,38.39,0,1,0,460.79,160ZM256,25.6A115.19,115.19,0,1,1,140.81,140.79,115.32,115.32,0,0,1,256,25.6ZM51.21,384a12.82,12.82,0,1,1,11.29-6.79c-.06.11-.14.2-.2.31l-.11.21A12.79,12.79,0,0,1,51.21,384ZM394.8,312.17a32,32,0,0,1-41.23,18.63L324,319.59a12.8,12.8,0,0,0-16.17,17.29l47.65,104.17a32,32,0,0,1-16.7,42.81c-15.76,6.64-34.73-1.38-42.28-17.9L281,432a27.48,27.48,0,0,0-50,0l-16.3,35.63A32,32,0,0,1,171.41,483c-13.51-6.68-20-22.69-16.22-37.7l24.06,13.75A12.8,12.8,0,1,0,192,436.87l-26.57-15.19,38.77-84.75A12.8,12.8,0,0,0,188,319.63l-29.45,11.16a32,32,0,1,1-22.61-59.87L175.21,256a140.49,140.49,0,0,0,161.61,0l38.68,14.65-20,21.36a12.8,12.8,0,1,0,18.67,17.51l20.09-21.41A31.77,31.77,0,0,1,394.8,312.17Zm66-101a12.8,12.8,0,1,1,12.8-12.8A12.81,12.81,0,0,1,460.79,211.19Z"/>
</svg>